<?xml version="1.0" encoding="UTF-8"?>
<svg width="611px" height="96px" viewBox="0 0 611 96" version="1.1" xmlns="http://www.w3.org/2000/svg" xmlns:xlink="http://www.w3.org/1999/xlink">
    <!-- Generator: Sketch 59.1 (86144) - https://sketch.com -->
    <title>Group 23</title>
    <desc>Created with Sketch.</desc>
    <g id="Page-2" stroke="none" stroke-width="1" fill="none" fill-rule="evenodd">
        <g id="7" transform="translate(-220.000000, -4290.000000)">
            <g id="Footer" transform="translate(-2.000000, 4121.000000)">
                <g id="Group-18">
                    <g id="Group-20" transform="translate(222.000000, 169.000000)">
                        <g id="Group-Copy-2">
                            <g id="Group-23" transform="translate(0.000000, 0.258603)">
                                <path d="M102.792169,29.0827798 L104.276935,36.3703506 C108.730768,30.1623685 114.669367,27.4636279 122.092268,27.4636279 C128.435929,27.4636279 133.699424,29.3527926 138.423299,33.5361412 L130.325294,48.9208586 C127.086184,46.6266748 123.712054,45.547086 119.66282,45.547086 C111.295236,45.547086 104.141914,50.9450297 104.141914,60.9313411 L104.141914,95.6141119 L84.7067947,95.6141119 L84.7067947,29.0827798 L102.792169,29.0827798 Z" id="Fill-15-Copy" fill="#EF6C68"></path>
                                <path d="M147.039712,95.6141119 L166.994285,95.6141119 L166.994285,29.2890529 L147.039712,29.2890529 L147.039712,95.6141119 Z M168.38058,11.8702439 C168.38058,26.3410073 145.654366,26.3410073 145.654366,11.8702439 C145.654366,-2.60051944 168.38058,-2.60051944 168.38058,11.8702439 L168.38058,11.8702439 Z" id="Fill-17-Copy" fill="#EF6C68"></path>
                                <path d="M242.757277,85.4267025 C234.727523,93.201244 225.064401,95.6141119 216.490502,95.6141119 C196.892418,95.6141119 179.743686,85.024864 179.743686,61.1643834 C179.743686,38.9126345 196.755799,26.4464565 216.353882,26.4464565 C226.153624,26.4464565 233.910606,28.5911259 240.715917,35.5615311 L229.827886,47.7599699 C225.745165,44.677065 221.253986,43.8724696 217.171266,43.8724696 C207.371524,43.8724696 199.478389,50.1723786 199.478389,61.1643834 C199.478389,71.7540905 207.643364,77.785801 216.762341,77.785801 C221.117833,77.785801 227.106227,76.0434294 230.372497,72.8264252 L242.757277,85.4267025 Z" id="Fill-19-Copy" fill="#EF6C68"></path>
                                <polygon id="Fill-20-Copy" fill="#EF6C68" points="272.59607 1.0171714 272.59607 55.0140134 292.375364 28.8951391 315.406959 28.8951391 315.406959 30.113615 290.885442 60.2922209 319.199995 94.1253272 319.199995 95.6141119 295.762732 95.6141119 272.59607 66.2468959 272.59607 95.6141119 253.087374 95.6141119 253.087374 1.0171714"></polygon>
                                <path d="M19.842479,7.10542736e-15 L19.8420516,30.0467579 C24.8413904,27.8513362 30.6524852,26.6416461 37.1196089,26.6416461 C59.8038143,26.6416461 74.3766978,41.3450787 74.3766978,61.2615466 C74.3766978,81.1780144 60.2162544,95.6141119 37.1196089,95.6141119 C14.2559782,95.6141119 0.117997646,81.2979038 0.000735158197,61.5098829 L-2.55795385e-13,61.5097184 L-2.55795385e-13,7.10542736e-15 L19.842479,7.10542736e-15 Z M37.1196089,43.8847626 C25.296326,43.8847626 20.0720848,52.9741573 20.0720848,61.2615466 C20.0720848,69.5489359 25.158846,78.504663 37.1196089,78.504663 C49.2178518,78.504663 54.304613,69.9499386 54.304613,61.2615466 C54.304613,52.9741573 49.0803717,43.8847626 37.1196089,43.8847626 Z" id="Combined-Shape" fill="#EF6C68" fill-rule="nonzero"></path>
                                <text id="Real-Estate-Starts-H" font-family="NexaRegular, Nexa Regular" font-size="32" font-weight="normal" letter-spacing="2.5" fill="#FFFFFF">
                                    <tspan x="365" y="47.7413971">REAL ESTATE </tspan>
                                    <tspan x="365" y="94.7413971">STARTS HERE</tspan>
                                </text>
                            </g>
                        </g>
                    </g>
                </g>
            </g>
        </g>
    </g>
</svg>