<?xml version="1.0" encoding="UTF-8"?>
<svg width="704px" height="98px" viewBox="0 0 704 98" version="1.1" xmlns="http://www.w3.org/2000/svg" xmlns:xlink="http://www.w3.org/1999/xlink">
    <!-- Generator: Sketch 58 (84663) - https://sketch.com -->
    <title>Group 20</title>
    <desc>Created with Sketch.</desc>
    <g id="Landing-Page" stroke="none" stroke-width="1" fill="none" fill-rule="evenodd">
        <g id="brick" transform="translate(-220.000000, -4183.000000)">
            <g id="Footer" transform="translate(-2.000000, 3991.000000)">
                <g id="Group-18">
                    <g id="Group-20" transform="translate(222.000000, 192.000000)">
                        <g id="Group-Copy-2" fill="#EF6C68">
                            <path d="M102.792169,29.756983 L104.276935,37.1477772 C108.730768,30.8518634 114.669367,28.1148969 122.092268,28.1148969 C128.435929,28.1148969 133.699424,30.0308203 138.423299,34.2734231 L130.325294,49.8760545 C127.086184,47.5493751 123.712054,46.4544947 119.66282,46.4544947 C111.295236,46.4544947 104.141914,51.9288965 104.141914,62.0566571 L104.141914,97.2306852 L84.7067947,97.2306852 L84.7067947,29.756983 L102.792169,29.756983 Z" id="Fill-15-Copy"></path>
                            <path d="M147.039712,97.2306852 L166.994285,97.2306852 L166.994285,29.9661779 L147.039712,29.9661779 L147.039712,97.2306852 Z M168.38058,12.3006435 C168.38058,26.9763752 145.654366,26.9763752 145.654366,12.3006435 C145.654366,-2.37508816 168.38058,-2.37508816 168.38058,12.3006435 L168.38058,12.3006435 Z" id="Fill-17-Copy"></path>
                            <path d="M242.757277,86.8989783 C234.727523,94.7836407 225.064401,97.2306852 216.490502,97.2306852 C196.892418,97.2306852 179.743686,86.491448 179.743686,62.2930003 C179.743686,39.7260708 196.755799,27.083318 216.353882,27.083318 C226.153624,27.083318 233.910606,29.2583652 240.715917,36.3275014 L229.827886,48.6987226 C225.745165,45.5721505 221.253986,44.7561585 217.171266,44.7561585 C207.371524,44.7561585 199.478389,51.1453013 199.478389,62.2930003 C199.478389,73.0327032 207.643364,79.1498488 216.762341,79.1498488 C221.117833,79.1498488 227.106227,77.3827976 230.372497,74.1202268 L242.757277,86.8989783 Z" id="Fill-19-Copy"></path>
                            <polygon id="Fill-20-Copy" points="272.59607 1.29384476 272.59607 56.0555146 292.375364 29.5666845 315.406959 29.5666845 315.406959 30.8024193 290.885442 61.4084842 319.199995 95.720813 319.199995 97.2306852 295.762732 97.2306852 272.59607 67.447503 272.59607 97.2306852 253.087374 97.2306852 253.087374 1.29384476"></polygon>
                            <path d="M19.842479,0.26226583 L19.8420516,30.7346152 C24.8413904,28.5080969 30.6524852,27.2812724 37.1196089,27.2812724 C59.8038143,27.2812724 74.3766978,42.1929689 74.3766978,62.3915397 C74.3766978,82.5901104 60.2162544,97.2306852 37.1196089,97.2306852 C14.2558532,97.2306852 0.11784305,82.7115392 0.000733236079,62.6430644 L0,62.6432267 L0,0.26226583 L19.842479,0.26226583 Z M37.1196089,44.7686256 C25.296326,44.7686256 20.0720848,53.9867653 20.0720848,62.3915397 C20.0720848,70.7963141 25.158846,79.8788929 37.1196089,79.8788929 C49.2178518,79.8788929 54.304613,71.2029967 54.304613,62.3915397 C54.304613,53.9867653 49.0803717,44.7686256 37.1196089,44.7686256 Z" id="Combined-Shape" fill-rule="nonzero"></path>
                        </g>
                        <path d="M377.287634,53 L371.868385,43.2988753 L368.322457,43.2988753 L368.322457,53 L365.010694,53 L365.010694,29.2824228 L373.942419,29.2824228 C376.127971,29.2824228 377.884191,29.9570345 379.211133,31.3062781 C380.538075,32.6555218 381.201536,34.333688 381.201536,36.3408273 C381.201536,38.0580465 380.688608,39.5243512 379.662737,40.7397856 C378.636866,41.9552199 377.23189,42.730187 375.447766,43.0647103 L381.10118,53 L377.287634,53 Z M368.322457,40.3550858 L373.34028,40.3550858 C374.678373,40.3550858 375.759982,39.9926911 376.585139,39.2678908 C377.410296,38.5430905 377.822869,37.5674124 377.822869,36.3408273 C377.822869,35.0919406 377.410296,34.0939614 376.585139,33.3468595 C375.759982,32.5997577 374.678373,32.2262124 373.34028,32.2262124 L368.322457,32.2262124 L368.322457,40.3550858 Z M403.607082,53 L389.189203,53 L389.189203,29.2824228 L403.607082,29.2824228 L403.607082,32.3265688 L392.467514,32.3265688 L392.467514,39.6191384 L402.570065,39.6191384 L402.570065,42.6967366 L392.467514,42.6967366 L392.467514,49.955854 L403.607082,49.955854 L403.607082,53 Z M428.521539,53 L425.945723,46.3764735 L415.441746,46.3764735 L412.932835,53 L409.420359,53 L418.853866,29.2824228 L422.633959,29.2824228 L432.067467,53 L428.521539,53 Z M420.660282,32.6945425 L416.612572,43.3323275 L424.774897,43.3323275 L420.660282,32.6945425 Z M453.369091,53 L438.884308,53 L438.884308,29.2824228 L442.162619,29.2824228 L442.162619,49.9224018 L453.369091,49.9224018 L453.369091,53 Z M486.940258,53 L472.52238,53 L472.52238,29.2824228 L486.940258,29.2824228 L486.940258,32.3265688 L475.800691,32.3265688 L475.800691,39.6191384 L485.903241,39.6191384 L485.903241,42.6967366 L475.800691,42.6967366 L475.800691,49.955854 L486.940258,49.955854 L486.940258,53 Z M510.550081,34.6682196 L507.606291,35.7052364 C507.45018,34.6793652 506.948403,33.7482896 506.100944,32.9119815 C505.253485,32.0756735 504.082672,31.6575257 502.588468,31.6575257 C501.272677,31.6575257 500.179917,32.0366464 499.310157,32.794899 C498.440397,33.5531516 498.005523,34.4898025 498.005523,35.6048799 C498.005523,36.4746403 498.267562,37.2105803 498.791649,37.8127221 C499.315735,38.4148639 500.068401,38.8274363 501.049669,39.0504518 L504.595597,39.8198513 C506.558134,40.2435807 508.074616,41.0408491 509.14509,42.2116803 C510.215565,43.3825116 510.750794,44.8042139 510.750794,46.47683 C510.750794,48.3947631 509.992552,50.0450528 508.476047,51.4277488 C506.959542,52.8104447 504.985885,53.5017823 502.555016,53.5017823 C499.901132,53.5017823 497.821544,52.8048694 496.316189,51.4110227 C494.810835,50.017176 493.935512,48.3613109 493.690195,46.4433778 L496.834698,45.4398132 C496.968507,46.8671122 497.526037,48.0713777 498.507305,49.0526458 C499.488573,50.0339139 500.826646,50.5245406 502.521564,50.5245406 C504.082672,50.5245406 505.286938,50.1677212 506.134396,49.4540717 C506.981855,48.7404222 507.405578,47.837223 507.405578,46.7444472 C507.405578,45.8523853 507.104512,45.0774182 506.50237,44.4195225 C505.900228,43.7616268 505.01933,43.3100273 503.85965,43.0647103 L500.480982,42.3287629 C498.71916,41.9496366 497.314184,41.2025459 496.266011,40.0874686 C495.217838,38.9723912 494.69376,37.5562642 494.69376,35.839045 C494.69376,33.965715 495.457576,32.3210005 496.985232,30.9048523 C498.512888,29.488704 500.358314,28.7806405 502.521564,28.7806405 C504.952432,28.7806405 506.814584,29.3716226 508.108074,30.5536047 C509.401563,31.7355867 510.215558,33.1071113 510.550081,34.6682196 Z M535.02966,32.3265688 L527.101499,32.3265688 L527.101499,53 L523.823188,53 L523.823188,32.3265688 L515.895028,32.3265688 L515.895028,29.2824228 L535.02966,29.2824228 L535.02966,32.3265688 Z M556.097119,53 L553.521303,46.3764735 L543.017327,46.3764735 L540.508415,53 L536.995939,53 L546.429446,29.2824228 L550.20954,29.2824228 L559.643047,53 L556.097119,53 Z M548.235863,32.6945425 L544.188152,43.3323275 L552.350477,43.3323275 L548.235863,32.6945425 Z M580.743958,32.3265688 L572.815798,32.3265688 L572.815798,53 L569.537487,53 L569.537487,32.3265688 L561.609326,32.3265688 L561.609326,29.2824228 L580.743958,29.2824228 L580.743958,32.3265688 Z M601.978678,53 L587.5608,53 L587.5608,29.2824228 L601.978678,29.2824228 L601.978678,32.3265688 L590.839111,32.3265688 L590.839111,39.6191384 L600.941661,39.6191384 L600.941661,42.6967366 L590.839111,42.6967366 L590.839111,49.955854 L601.978678,49.955854 L601.978678,53 Z M625.581103,53 L622.302792,53 L622.302792,29.2824228 L636.72067,29.2824228 L636.72067,32.3265688 L625.581103,32.3265688 L625.581103,39.9536599 L635.683654,39.9536599 L635.683654,43.0312581 L625.581103,43.0312581 L625.581103,53 Z M648.388074,34.2667938 C646.715458,35.8948067 645.879163,38.1806811 645.879163,41.1244853 C645.879163,44.0682896 646.715458,46.3653145 648.388074,48.0156291 C650.06069,49.6659436 652.07895,50.4910884 654.442914,50.4910884 C656.806878,50.4910884 658.825138,49.6659436 660.497754,48.0156291 C662.17037,46.3653145 663.006666,44.0682896 663.006666,41.1244853 C663.006666,38.1806811 662.17037,35.8892314 660.497754,34.2500677 C658.825138,32.6109039 656.806878,31.7913344 654.442914,31.7913344 C652.07895,31.7913344 650.06069,32.6164792 648.388074,34.2667938 Z M642.533947,41.1244853 C642.533947,39.2065522 642.874041,37.455907 643.554238,35.8724972 C644.234435,34.2890873 645.137634,32.9900416 646.263863,31.9753212 C647.390091,30.9606008 648.655685,30.174483 650.060682,29.6169444 C651.46568,29.0594057 652.926409,28.7806405 654.442914,28.7806405 C655.959419,28.7806405 657.420149,29.0594057 658.825146,29.6169444 C660.230144,30.174483 661.495738,30.9606008 662.621966,31.9753212 C663.748194,32.9900416 664.651393,34.2890873 665.33159,35.8724972 C666.011788,37.455907 666.351881,39.2065522 666.351881,41.1244853 C666.351881,43.6668617 665.766474,45.896983 664.595643,47.8149161 C663.424812,49.7328492 661.947356,51.1601268 660.163233,52.0967918 C658.379109,53.0334568 656.472355,53.5017823 654.442914,53.5017823 C652.413473,53.5017823 650.50672,53.0334568 648.722596,52.0967918 C646.938472,51.1601268 645.461017,49.7328492 644.290185,47.8149161 C643.119354,45.896983 642.533947,43.6668617 642.533947,41.1244853 Z M686.616488,53 L681.19724,43.2988753 L677.651311,43.2988753 L677.651311,53 L674.339548,53 L674.339548,29.2824228 L683.271273,29.2824228 C685.456825,29.2824228 687.213045,29.9570345 688.539987,31.3062781 C689.866929,32.6555218 690.53039,34.333688 690.53039,36.3408273 C690.53039,38.0580465 690.017463,39.5243512 688.991591,40.7397856 C687.96572,41.9552199 686.560744,42.730187 684.77662,43.0647103 L690.430034,53 L686.616488,53 Z M677.651311,40.3550858 L682.669134,40.3550858 C684.007227,40.3550858 685.088836,39.9926911 685.913993,39.2678908 C686.73915,38.5430905 687.151723,37.5674124 687.151723,36.3408273 C687.151723,35.0919406 686.73915,34.0939614 685.913993,33.3468595 C685.088836,32.5997577 684.007227,32.2262124 682.669134,32.2262124 L677.651311,32.2262124 L677.651311,40.3550858 Z M381.469154,76.3265688 L373.540993,76.3265688 L373.540993,97 L370.262682,97 L370.262682,76.3265688 L362.334522,76.3265688 L362.334522,73.2824228 L381.469154,73.2824228 L381.469154,76.3265688 Z M406.952297,97 L403.673986,97 L403.673986,86.4625715 L391.564306,86.4625715 L391.564306,97 L388.285995,97 L388.285995,73.2824228 L391.564306,73.2824228 L391.564306,83.4184255 L403.673986,83.4184255 L403.673986,73.2824228 L406.952297,73.2824228 L406.952297,97 Z M430.863189,97 L416.445311,97 L416.445311,73.2824228 L430.863189,73.2824228 L430.863189,76.3265688 L419.723622,76.3265688 L419.723622,83.6191384 L429.826173,83.6191384 L429.826173,86.6967366 L419.723622,86.6967366 L419.723622,93.955854 L430.863189,93.955854 L430.863189,97 Z M476.811653,97 L473.566794,97 L473.566794,78.534411 L465.471373,97 L462.460679,97 L454.432162,78.534411 L454.432162,97 L451.187303,97 L451.187303,73.2824228 L455.63644,73.2824228 L463.999478,92.5843157 L472.429421,73.2824228 L476.811653,73.2824228 L476.811653,97 Z M490.653447,78.2667938 C488.980831,79.8948067 488.144535,82.1806811 488.144535,85.1244853 C488.144535,88.0682896 488.980831,90.3653145 490.653447,92.0156291 C492.326063,93.6659436 494.344323,94.4910884 496.708287,94.4910884 C499.072251,94.4910884 501.090511,93.6659436 502.763127,92.0156291 C504.435743,90.3653145 505.272038,88.0682896 505.272038,85.1244853 C505.272038,82.1806811 504.435743,79.8892314 502.763127,78.2500677 C501.090511,76.6109039 499.072251,75.7913344 496.708287,75.7913344 C494.344323,75.7913344 492.326063,76.6164792 490.653447,78.2667938 Z M484.79932,85.1244853 C484.79932,83.2065522 485.139414,81.455907 485.819611,79.8724972 C486.499808,78.2890873 487.403007,76.9900416 488.529235,75.9753212 C489.655463,74.9606008 490.921057,74.174483 492.326055,73.6169444 C493.731052,73.0594057 495.191782,72.7806405 496.708287,72.7806405 C498.224792,72.7806405 499.685522,73.0594057 501.090519,73.6169444 C502.495517,74.174483 503.76111,74.9606008 504.887339,75.9753212 C506.013567,76.9900416 506.916766,78.2890873 507.596963,79.8724972 C508.27716,81.455907 508.617254,83.2065522 508.617254,85.1244853 C508.617254,87.6668617 508.031847,89.896983 506.861016,91.8149161 C505.690184,93.7328492 504.212729,95.1601268 502.428605,96.0967918 C500.644481,97.0334568 498.737728,97.5017823 496.708287,97.5017823 C494.678846,97.5017823 492.772092,97.0334568 490.987969,96.0967918 C489.203845,95.1601268 487.726389,93.7328492 486.555558,91.8149161 C485.384727,89.896983 484.79932,87.6668617 484.79932,85.1244853 Z M519.883232,94.0896626 L524.733794,94.0896626 C527.053155,94.0896626 528.976635,93.3202708 530.504291,91.781464 C532.031947,90.2426572 532.795763,88.0459877 532.795763,85.1913896 C532.795763,82.31449 532.043097,80.0955193 530.537743,78.534411 C529.032388,76.9733027 527.120059,76.1927602 524.800698,76.1927602 L519.883232,76.1927602 L519.883232,94.0896626 Z M524.834151,97 L516.604921,97 L516.604921,73.2824228 L524.901055,73.2824228 C528.090176,73.2824228 530.766322,74.3361551 532.929572,76.4436514 C535.092822,78.5511476 536.174431,81.4670312 536.174431,85.1913896 C536.174431,88.8934465 535.081671,91.7870289 532.89612,93.8722236 C530.710568,95.9574183 528.023272,97 524.834151,97 Z M558.579976,97 L544.162098,97 L544.162098,73.2824228 L558.579976,73.2824228 L558.579976,76.3265688 L547.440409,76.3265688 L547.440409,83.6191384 L557.542959,83.6191384 L557.542959,86.6967366 L547.440409,86.6967366 L547.440409,93.955854 L558.579976,93.955854 L558.579976,97 Z M579.346366,97 L573.927117,87.2988753 L570.381188,87.2988753 L570.381188,97 L567.069425,97 L567.069425,73.2824228 L576.00115,73.2824228 C578.186702,73.2824228 579.942923,73.9570345 581.269865,75.3062781 C582.596807,76.6555218 583.260268,78.333688 583.260268,80.3408273 C583.260268,82.0580465 582.74734,83.5243512 581.721469,84.7397856 C580.695597,85.9552199 579.290621,86.730187 577.506497,87.0647103 L583.159911,97 L579.346366,97 Z M570.381188,84.3550858 L575.399012,84.3550858 C576.737104,84.3550858 577.818713,83.9926911 578.643871,83.2678908 C579.469028,82.5430905 579.8816,81.5674124 579.8816,80.3408273 C579.8816,79.0919406 579.469028,78.0939614 578.643871,77.3468595 C577.818713,76.5997577 576.737104,76.2262124 575.399012,76.2262124 L570.381188,76.2262124 L570.381188,84.3550858 Z M610.75054,97 L607.338421,97 L594.526246,77.664655 L594.526246,97 L591.247935,97 L591.247935,73.2824228 L595.630167,73.2824228 L607.472229,91.4803946 L607.472229,73.2824228 L610.75054,73.2824228 L610.75054,97 Z M646.563002,97 L632.078219,97 L632.078219,73.2824228 L635.35653,73.2824228 L635.35653,93.9224018 L646.563002,93.9224018 L646.563002,97 Z M657.226841,97 L653.881625,97 L653.881625,73.2824228 L657.226841,73.2824228 L657.226841,97 Z M669.998166,97 L666.719855,97 L666.719855,73.2824228 L681.137733,73.2824228 L681.137733,76.3265688 L669.998166,76.3265688 L669.998166,83.9536599 L680.100716,83.9536599 L680.100716,87.0312581 L669.998166,87.0312581 L669.998166,97 Z M703.041496,97 L688.623618,97 L688.623618,73.2824228 L703.041496,73.2824228 L703.041496,76.3265688 L691.901929,76.3265688 L691.901929,83.6191384 L702.004479,83.6191384 L702.004479,86.6967366 L691.901929,86.6967366 L691.901929,93.955854 L703.041496,93.955854 L703.041496,97 Z" id="REALESTATEFORTHEMODERNLIFE" fill="#FFFFFF" fill-rule="nonzero"></path>
                    </g>
                </g>
            </g>
        </g>
    </g>
</svg>