<?xml version="1.0" encoding="UTF-8"?>
<svg width="611px" height="96px" viewBox="0 0 611 96" version="1.1" xmlns="http://www.w3.org/2000/svg" xmlns:xlink="http://www.w3.org/1999/xlink">
    <!-- Generator: Sketch 59.1 (86144) - https://sketch.com -->
    <title>Group 23</title>
    <desc>Created with Sketch.</desc>
    <g id="Page-2" stroke="none" stroke-width="1" fill="none" fill-rule="evenodd">
        <g id="7" transform="translate(-220.000000, -4290.000000)">
            <g id="Footer" transform="translate(-2.000000, 4121.000000)">
                <g id="Group-18">
                    <g id="Group-20" transform="translate(222.000000, 169.000000)">
                        <g id="Group-Copy-2">
                            <g id="Group-23" transform="translate(0.000000, 0.258603)">
                                <path d="M102.792169,29.0827798 L104.276935,36.3703506 C108.730768,30.1623685 114.669367,27.4636279 122.092268,27.4636279 C128.435929,27.4636279 133.699424,29.3527926 138.423299,33.5361412 L130.325294,48.9208586 C127.086184,46.6266748 123.712054,45.547086 119.66282,45.547086 C111.295236,45.547086 104.141914,50.9450297 104.141914,60.9313411 L104.141914,95.6141119 L84.7067947,95.6141119 L84.7067947,29.0827798 L102.792169,29.0827798 Z" id="Fill-15-Copy" fill="#EF6C68"></path>
                                <path d="M147.039712,95.6141119 L166.994285,95.6141119 L166.994285,29.2890529 L147.039712,29.2890529 L147.039712,95.6141119 Z M168.38058,11.8702439 C168.38058,26.3410073 145.654366,26.3410073 145.654366,11.8702439 C145.654366,-2.60051944 168.38058,-2.60051944 168.38058,11.8702439 L168.38058,11.8702439 Z" id="Fill-17-Copy" fill="#EF6C68"></path>
                                <path d="M242.757277,85.4267025 C234.727523,93.201244 225.064401,95.6141119 216.490502,95.6141119 C196.892418,95.6141119 179.743686,85.024864 179.743686,61.1643834 C179.743686,38.9126345 196.755799,26.4464565 216.353882,26.4464565 C226.153624,26.4464565 233.910606,28.5911259 240.715917,35.5615311 L229.827886,47.7599699 C225.745165,44.677065 221.253986,43.8724696 217.171266,43.8724696 C207.371524,43.8724696 199.478389,50.1723786 199.478389,61.1643834 C199.478389,71.7540905 207.643364,77.785801 216.762341,77.785801 C221.117833,77.785801 227.106227,76.0434294 230.372497,72.8264252 L242.757277,85.4267025 Z" id="Fill-19-Copy" fill="#EF6C68"></path>
                                <polygon id="Fill-20-Copy" fill="#EF6C68" points="272.59607 1.0171714 272.59607 55.0140134 292.375364 28.8951391 315.406959 28.8951391 315.406959 30.113615 290.885442 60.2922209 319.199995 94.1253272 319.199995 95.6141119 295.762732 95.6141119 272.59607 66.2468959 272.59607 95.6141119 253.087374 95.6141119 253.087374 1.0171714"></polygon>
                                <path d="M19.842479,7.10542736e-15 L19.8420516,30.0467579 C24.8413904,27.8513362 30.6524852,26.6416461 37.1196089,26.6416461 C59.8038143,26.6416461 74.3766978,41.3450787 74.3766978,61.2615466 C74.3766978,81.1780144 60.2162544,95.6141119 37.1196089,95.6141119 C14.2559782,95.6141119 0.117997646,81.2979038 0.000735158197,61.5098829 L-2.55795385e-13,61.5097184 L-2.55795385e-13,7.10542736e-15 L19.842479,7.10542736e-15 Z M37.1196089,43.8847626 C25.296326,43.8847626 20.0720848,52.9741573 20.0720848,61.2615466 C20.0720848,69.5489359 25.158846,78.504663 37.1196089,78.504663 C49.2178518,78.504663 54.304613,69.9499386 54.304613,61.2615466 C54.304613,52.9741573 49.0803717,43.8847626 37.1196089,43.8847626 Z" id="Combined-Shape" fill="#EF6C68" fill-rule="nonzero"></path>
                                <path d="M383.176,47.7413971 L386.696,47.7413971 L379.304,39.4533971 C383.912,39.0693971 385.768,35.9013971 385.736,32.5093971 C385.736,28.8613971 383.208,25.3413971 378.152,25.3413971 L367.976,25.3413971 L367.976,47.7413971 L370.76,47.7413971 L370.76,39.6773971 L376.2,39.6773971 L383.176,47.7413971 Z M378.024,37.1813971 L370.76,37.1813971 L370.76,27.8373971 L378.152,27.8373971 C381.384,27.8373971 382.984,30.3333971 382.952,32.5733971 C382.952,35.1013971 381.384,37.1813971 378.024,37.1813971 Z M393.26,47.7413971 L409.516,47.7413971 L409.516,45.0853971 L396.012,45.0853971 L396.012,37.5013971 L408.46,37.5013971 L408.46,34.9093971 L396.012,34.9093971 L396.012,27.9013971 L409.004,27.9013971 L409.004,25.3413971 L393.26,25.3413971 L393.26,47.7413971 Z M424.208,25.3413971 L414.16,47.7413971 L417.2,47.7413971 L419.376,42.8133971 L432.176,42.8133971 L434.384,47.7413971 L437.392,47.7413971 L427.344,25.3413971 L424.208,25.3413971 Z M431.088,40.2533971 L420.464,40.2533971 L425.776,28.1573971 L431.088,40.2533971 Z M446.196,25.3413971 L443.412,25.3413971 L443.412,47.7413971 L458.388,47.7413971 L458.388,45.1493971 L446.196,45.1493971 L446.196,25.3413971 Z M474.236,47.7413971 L490.492,47.7413971 L490.492,45.0853971 L476.988,45.0853971 L476.988,37.5013971 L489.436,37.5013971 L489.436,34.9093971 L476.988,34.9093971 L476.988,27.9013971 L489.98,27.9013971 L489.98,25.3413971 L474.236,25.3413971 L474.236,47.7413971 Z M511.392,30.2373971 L513.504,28.9253971 C511.52,25.5333971 508.352,24.8613971 505.024,24.8613971 C501.152,24.8613971 496.384,26.4613971 496.448,31.1333971 C496.448,35.6773971 500.64,36.6693971 504.96,37.3413971 L505.438158,37.4166823 C508.611483,37.9340864 511.454476,38.7859685 511.424,41.4373971 C511.424,44.7333971 507.808,45.5973971 505.088,45.5973971 C502.336,45.5973971 499.328,44.3173971 497.888,41.6613971 L495.584,43.0053971 C497.312,46.7493971 501.088,48.1893971 505.056,48.1893971 C509.344,48.1893971 514.144,46.5573971 514.176,41.5333971 C514.176,36.7531789 510.228607,35.6915194 506.011813,34.9949548 L505.28,34.8773971 C501.984,34.3333971 499.2,33.6293971 499.2,31.1973971 C499.2,28.4773971 502.24,27.3573971 505.088,27.3573971 C507.584,27.3893971 510.176,28.2853971 511.392,30.2373971 Z M526.308,27.8373971 L526.308,47.7413971 L529.06,47.7413971 L529.06,27.8373971 L536.708,27.8373971 L536.708,25.3413971 L518.66,25.3413971 L518.66,27.8373971 L526.308,27.8373971 Z M548.264,25.3413971 L538.216,47.7413971 L541.256,47.7413971 L543.432,42.8133971 L556.232,42.8133971 L558.44,47.7413971 L561.448,47.7413971 L551.4,25.3413971 L548.264,25.3413971 Z M555.144,40.2533971 L544.52,40.2533971 L549.832,28.1573971 L555.144,40.2533971 Z M570.604,27.8373971 L570.604,47.7413971 L573.356,47.7413971 L573.356,27.8373971 L581.004,27.8373971 L581.004,25.3413971 L562.956,25.3413971 L562.956,27.8373971 L570.604,27.8373971 Z M587.024,47.7413971 L603.28,47.7413971 L603.28,45.0853971 L589.776,45.0853971 L589.776,37.5013971 L602.224,37.5013971 L602.224,34.9093971 L589.776,34.9093971 L589.776,27.9013971 L602.768,27.9013971 L602.768,25.3413971 L587.024,25.3413971 L587.024,47.7413971 Z M382.024,77.2373971 L384.136,75.9253971 C382.152,72.5333971 378.984,71.8613971 375.656,71.8613971 C371.784,71.8613971 367.016,73.4613971 367.08,78.1333971 C367.08,82.6773971 371.272,83.6693971 375.592,84.3413971 L376.070158,84.4166823 C379.243483,84.9340864 382.086476,85.7859685 382.056,88.4373971 C382.056,91.7333971 378.44,92.5973971 375.72,92.5973971 C372.968,92.5973971 369.96,91.3173971 368.52,88.6613971 L366.216,90.0053971 C367.944,93.7493971 371.72,95.1893971 375.688,95.1893971 C379.976,95.1893971 384.776,93.5573971 384.808,88.5333971 C384.808,83.7531789 380.860607,82.6915194 376.643813,81.9949548 L375.912,81.8773971 C372.616,81.3333971 369.832,80.6293971 369.832,78.1973971 C369.832,75.4773971 372.872,74.3573971 375.72,74.3573971 C378.216,74.3893971 380.808,75.2853971 382.024,77.2373971 Z M396.94,74.8373971 L396.94,94.7413971 L399.692,94.7413971 L399.692,74.8373971 L407.34,74.8373971 L407.34,72.3413971 L389.292,72.3413971 L389.292,74.8373971 L396.94,74.8373971 Z M418.896,72.3413971 L408.848,94.7413971 L411.888,94.7413971 L414.064,89.8133971 L426.864,89.8133971 L429.072,94.7413971 L432.08,94.7413971 L422.032,72.3413971 L418.896,72.3413971 Z M425.776,87.2533971 L415.152,87.2533971 L420.464,75.1573971 L425.776,87.2533971 Z M453.3,94.7413971 L456.82,94.7413971 L449.428,86.4533971 C454.036,86.0693971 455.892,82.9013971 455.86,79.5093971 C455.86,75.8613971 453.332,72.3413971 448.276,72.3413971 L438.1,72.3413971 L438.1,94.7413971 L440.884,94.7413971 L440.884,86.6773971 L446.324,86.6773971 L453.3,94.7413971 Z M448.148,84.1813971 L440.884,84.1813971 L440.884,74.8373971 L448.276,74.8373971 C451.508,74.8373971 453.108,77.3333971 453.076,79.5733971 C453.076,82.1013971 451.508,84.1813971 448.148,84.1813971 Z M468.216,74.8373971 L468.216,94.7413971 L470.968,94.7413971 L470.968,74.8373971 L478.616,74.8373971 L478.616,72.3413971 L460.568,72.3413971 L460.568,74.8373971 L468.216,74.8373971 Z M498.684,77.2373971 L500.796,75.9253971 C498.812,72.5333971 495.644,71.8613971 492.316,71.8613971 C488.444,71.8613971 483.676,73.4613971 483.74,78.1333971 C483.74,82.6773971 487.932,83.6693971 492.252,84.3413971 L492.730158,84.4166823 C495.903483,84.9340864 498.746476,85.7859685 498.716,88.4373971 C498.716,91.7333971 495.1,92.5973971 492.38,92.5973971 C489.628,92.5973971 486.62,91.3173971 485.18,88.6613971 L482.876,90.0053971 C484.604,93.7493971 488.38,95.1893971 492.348,95.1893971 C496.636,95.1893971 501.436,93.5573971 501.468,88.5333971 C501.468,83.7531789 497.520607,82.6915194 493.303813,81.9949548 L492.572,81.8773971 C489.276,81.3333971 486.492,80.6293971 486.492,78.1973971 C486.492,75.4773971 489.532,74.3573971 492.38,74.3573971 C494.876,74.3893971 497.468,75.2853971 498.684,77.2373971 Z M534.66,94.7413971 L537.444,94.7413971 L537.444,72.3413971 L534.66,72.3413971 L534.66,82.0373971 L521.86,82.0373971 L521.86,72.3413971 L519.076,72.3413971 L519.076,94.7413971 L521.86,94.7413971 L521.86,84.6293971 L534.66,84.6293971 L534.66,94.7413971 Z M545.896,94.7413971 L562.152,94.7413971 L562.152,92.0853971 L548.648,92.0853971 L548.648,84.5013971 L561.096,84.5013971 L561.096,81.9093971 L548.648,81.9093971 L548.648,74.9013971 L561.64,74.9013971 L561.64,72.3413971 L545.896,72.3413971 L545.896,94.7413971 Z M584.428,94.7413971 L587.948,94.7413971 L580.556,86.4533971 C585.164,86.0693971 587.02,82.9013971 586.988,79.5093971 C586.988,75.8613971 584.46,72.3413971 579.404,72.3413971 L569.228,72.3413971 L569.228,94.7413971 L572.012,94.7413971 L572.012,86.6773971 L577.452,86.6773971 L584.428,94.7413971 Z M579.276,84.1813971 L572.012,84.1813971 L572.012,74.8373971 L579.404,74.8373971 C582.636,74.8373971 584.236,77.3333971 584.204,79.5733971 C584.204,82.1013971 582.636,84.1813971 579.276,84.1813971 Z M594.512,94.7413971 L594.512,72.3413971 L610.256,72.3413971 L610.256,74.9013971 L597.264,74.9013971 L597.264,81.9093971 L609.712,81.9093971 L609.712,84.5013971 L597.264,84.5013971 L597.264,92.0853971 L610.768,92.0853971 L610.768,94.7413971 L594.512,94.7413971 Z" id="REALESTATESTARTSHERE" fill="#FFFFFF" fill-rule="nonzero"></path>
                            </g>
                        </g>
                    </g>
                </g>
            </g>
        </g>
    </g>
</svg>