<?xml version="1.0" encoding="UTF-8"?>
<svg width="189px" height="58px" viewBox="0 0 189 58" version="1.1" xmlns="http://www.w3.org/2000/svg" xmlns:xlink="http://www.w3.org/1999/xlink">
    <!-- Generator: Sketch 59.1 (86144) - https://sketch.com -->
    <title>Group Copy 2</title>
    <desc>Created with Sketch.</desc>
    <g id="Page-2" stroke="none" stroke-width="1" fill="none" fill-rule="evenodd">
        <g id="7" transform="translate(-158.000000, -60.000000)" fill="#F16F6B">
            <g id="Top" transform="translate(0.000000, -1174.000000)">
                <g id="Group-Copy-2" transform="translate(158.000000, 1234.000000)">
                    <path d="M60.5980049,17.611276 L61.4733032,21.9854195 C64.0989255,18.2592664 67.5998461,16.6394291 71.9757925,16.6394291 C75.7155051,16.6394291 78.818439,17.773343 81.603256,20.2842712 L76.8293229,29.5184817 C74.9198042,28.1414674 72.9306881,27.4934769 70.5435853,27.4934769 C65.61073,27.4934769 61.3937058,30.7334291 61.3937058,36.7274099 L61.3937058,57.5446922 L49.9363209,57.5446922 L49.9363209,17.611276 L60.5980049,17.611276 Z" id="Fill-15-Copy"></path>
                    <path d="M86.6828009,57.5446922 L98.4464142,57.5446922 L98.4464142,17.7350852 L86.6828009,17.7350852 L86.6828009,57.5446922 Z M99.2636622,7.27997282 C99.2636622,15.9656101 85.8661127,15.9656101 85.8661127,7.27997282 C85.8661127,-1.40566445 99.2636622,-1.40566445 99.2636622,7.27997282 L99.2636622,7.27997282 Z" id="Fill-17-Copy"></path>
                    <path d="M143.110188,51.4300084 C138.37649,56.0964414 132.679889,57.5446922 127.625407,57.5446922 C116.071951,57.5446922 105.962437,51.1888171 105.962437,36.8672865 C105.962437,23.5113484 115.991412,16.0289028 127.544867,16.0289028 C133.322008,16.0289028 137.894901,17.3161756 141.906766,21.4999502 L135.488057,28.8216934 C133.081213,26.9712732 130.433575,26.4883391 128.026731,26.4883391 C122.249591,26.4883391 117.596432,30.2696687 117.596432,36.8672865 C117.596432,43.2234373 122.409845,46.8437888 127.785662,46.8437888 C130.35331,46.8437888 133.883586,45.797983 135.809116,43.8670738 L143.110188,51.4300084 Z" id="Fill-19-Copy"></path>
                    <polygon id="Fill-20-Copy" points="161.248183 1.19314286 161.248183 33.6031112 172.908466 17.9260483 186.486044 17.9260483 186.486044 18.6574015 172.030128 36.7711954 188.722113 57.0784924 188.722113 57.9720902 174.905386 57.9720902 161.248183 40.3453086 161.248183 57.9720902 149.747424 57.9720902 149.747424 1.19314286"></polygon>
                    <path d="M11.6975315,0 L11.6973899,18.0346067 C14.6445736,16.7169026 18.0702903,15.9908409 21.8827392,15.9908409 C35.2555243,15.9908409 43.8465256,24.8161308 43.8465256,36.7703872 C43.8465256,48.7246436 35.4986659,57.3894737 21.8827392,57.3894737 C8.4041921,57.3894737 0.0695776226,48.7966197 0.000433585438,36.9194771 L0,36.9193448 L0,0 L11.6975315,0 Z M21.8827392,26.3404991 C14.9126815,26.3404991 11.8328886,31.7961329 11.8328886,36.7703872 C11.8328886,41.7446415 14.8316344,47.1200454 21.8827392,47.1200454 C29.0148913,47.1200454 32.013637,41.9853312 32.013637,36.7703872 C32.013637,31.7961329 28.9338441,26.3404991 21.8827392,26.3404991 Z" id="Combined-Shape" fill-rule="nonzero"></path>
                </g>
            </g>
        </g>
    </g>
</svg>