<?xml version="1.0" encoding="UTF-8"?>
<svg width="48px" height="48px" viewBox="0 0 48 48" version="1.1" xmlns="http://www.w3.org/2000/svg" xmlns:xlink="http://www.w3.org/1999/xlink">
    <!-- Generator: Sketch 58 (84663) - https://sketch.com -->
    <title>Group 9</title>
    <desc>Created with Sketch.</desc>
    <g id="Landing-Page" stroke="none" stroke-width="1" fill="none" fill-rule="evenodd">
        <g id="brick" transform="translate(-1298.000000, -2475.000000)">
            <g id="How-Does-Brick-Work" transform="translate(446.000000, 2241.000000)">
                <g id="Group-2">
                    <g id="Group-13" transform="translate(676.000000, 234.000000)">
                        <g id="Group-5" transform="translate(176.000000, 0.000000)">
                            <g id="Group-9">
                                <rect id="Rectangle" fill="#C0E1EE" x="0" y="22" width="26" height="26" rx="8"></rect>
                                <g id="Group-2" transform="translate(4.000000, 0.000000)" fill="#1D3556">
                                    <path d="M33.999,40.0005 L9.999,40.0005 L9.999,16.8285 L21.999,4.8285 L33.999,16.8285 L33.999,40.0005 Z M43.413,20.5865 C38.823,15.9965 28.411,5.5845 23.413,0.5865 C22.633,-0.1955 21.367,-0.1955 20.585,0.5865 C15.587,5.5845 5.173,16.0005 0.585,20.5865 C-0.195,21.3685 -0.195,22.6325 0.585,23.4145 C1.367,24.1965 2.633,24.1965 3.413,23.4145 L5.999,20.8285 L5.999,42.0005 C5.999,43.1045 6.895,44.0005 7.999,44.0005 L35.999,44.0005 C37.105,44.0005 37.999,43.1045 37.999,42.0005 L37.999,20.8285 L40.585,23.4145 C41.367,24.1965 42.633,24.1965 43.413,23.4145 C44.195,22.6325 44.195,21.3685 43.413,20.5865 L43.413,20.5865 Z" id="Fill-265-Copy"></path>
                                    <path d="M19.999,18.0005 L19.999,18.1025 C17.721,18.5665 15.999,20.5865 15.999,23.0005 C15.999,25.7565 18.241,28.0005 20.999,28.0005 L22.999,28.0005 C23.551,28.0005 23.999,28.4485 23.999,29.0005 C23.999,29.5525 23.551,30.0005 22.999,30.0005 L17.999,30.0005 C16.895,30.0005 15.999,30.8965 15.999,32.0005 C15.999,33.1045 16.895,34.0005 17.999,34.0005 L19.999,34.0005 C19.999,35.1045 20.895,36.0005 21.999,36.0005 C23.105,36.0005 23.999,35.1045 23.999,34.0005 L23.999,33.8985 C26.279,33.4345 27.999,31.4145 27.999,29.0005 C27.999,26.2445 25.757,24.0005 22.999,24.0005 L20.999,24.0005 C20.449,24.0005 19.999,23.5525 19.999,23.0005 C19.999,22.4485 20.449,22.0005 20.999,22.0005 L25.999,22.0005 C27.105,22.0005 27.999,21.1045 27.999,20.0005 C27.999,18.8965 27.105,18.0005 25.999,18.0005 L23.999,18.0005 C23.999,16.8965 23.105,16.0005 21.999,16.0005 C20.895,16.0005 19.999,16.8965 19.999,18.0005" id="Fill-266-Copy"></path>
                                </g>
                            </g>
                        </g>
                    </g>
                </g>
            </g>
        </g>
    </g>
</svg>