<?xml version="1.0" encoding="UTF-8"?>
<svg width="46px" height="50px" viewBox="0 0 46 50" version="1.1" xmlns="http://www.w3.org/2000/svg" xmlns:xlink="http://www.w3.org/1999/xlink">
    <!-- Generator: Sketch 58 (84663) - https://sketch.com -->
    <title>Group 6</title>
    <desc>Created with Sketch.</desc>
    <g id="Landing-Page" stroke="none" stroke-width="1" fill="none" fill-rule="evenodd">
        <g id="brick" transform="translate(-618.000000, -2473.000000)">
            <g id="How-Does-Brick-Work" transform="translate(446.000000, 2241.000000)">
                <g id="Group-2">
                    <g id="Group-14" transform="translate(0.000000, 232.000000)">
                        <g id="Group-3" transform="translate(172.000000, 0.000000)">
                            <g id="Group-6">
                                <circle id="Oval" fill="#C0E1EE" cx="31" cy="15" r="15"></circle>
                                <g id="Group" transform="translate(0.000000, 6.000000)" fill="#2D3D5D">
                                    <path d="M17.998,39.58 C14.568,37.132 4,28.728 4,18 C4,10.282 10.282,4 18,4 C25.72,4 32,10.282 32,18 C32,28.7 21.43,37.128 17.998,39.58 Z M18,0 C8.074,0 0,8.074 0,18 C0,32.938 16.248,43.264 16.94,43.696 C17.264,43.898 17.634,44 18,44 C18.368,44 18.738,43.898 19.062,43.696 C19.752,43.264 36,32.938 36,18 C36,8.074 27.926,0 18,0 L18,0 Z" id="Fill-77"></path>
                                    <path d="M22,20 L14,20 L14,16.828 L18,12.828 L22,16.828 L22,20 Z M19.414,8.586 C18.634,7.804 17.368,7.804 16.586,8.586 L10.586,14.586 C10.212,14.96 10,15.468 10,16 L10,22 C10,23.106 10.896,24 12,24 L24,24 C25.106,24 26,23.106 26,22 L26,16 C26,15.468 25.79,14.96 25.414,14.586 L19.414,8.586 L19.414,8.586 Z" id="Fill-78"></path>
                                </g>
                            </g>
                        </g>
                    </g>
                </g>
            </g>
        </g>
    </g>
</svg>