<?xml version="1.0" encoding="UTF-8"?>
<svg width="54px" height="46px" viewBox="0 0 54 46" version="1.1" xmlns="http://www.w3.org/2000/svg" xmlns:xlink="http://www.w3.org/1999/xlink">
    <!-- Generator: Sketch 58 (84663) - https://sketch.com -->
    <title>Group 10</title>
    <desc>Created with Sketch.</desc>
    <g id="Landing-Page" stroke="none" stroke-width="1" fill="none" fill-rule="evenodd">
        <g id="brick" transform="translate(-2068.000000, -2477.000000)">
            <g id="How-Does-Brick-Work" transform="translate(446.000000, 2241.000000)">
                <g id="Group-2">
                    <g id="Group-17" transform="translate(1450.000000, 234.000000)">
                        <g id="Group-11" transform="translate(172.000000, 0.000000)">
                            <g id="Group-10">
                                <rect id="Rectangle-Copy-13" fill="#C0E1EE" transform="translate(37.000000, 19.000000) rotate(-315.000000) translate(-37.000000, -19.000000) " x="24" y="6" width="26" height="26" rx="4"></rect>
                                <g id="Group-4" transform="translate(0.000000, 4.000000)" fill="#1D3556">
                                    <path d="M30,26.0005 C31.104,26.0005 32,26.8965 32,28.0005 C32,29.1045 31.104,30.0005 30,30.0005 C28.898,30.0005 28,29.1045 28,28.0005 C28,26.8965 28.898,26.0005 30,26.0005 Z M10,26.0005 C8.896,26.0005 8,26.8945 8,28.0005 L8,32.0005 C8,33.1065 8.896,34.0005 10,34.0005 C11.106,34.0005 12,33.1065 12,32.0005 L12,30.0005 L14,30.0005 L14,32.0005 C14,33.1065 14.896,34.0005 16,34.0005 C17.106,34.0005 18,33.1065 18,32.0005 L18,30.0005 L24.37,30.0005 C25.198,32.3225 27.398,34.0005 30,34.0005 C33.31,34.0005 36,31.3085 36,28.0005 C36,24.6925 33.31,22.0005 30,22.0005 C27.398,22.0005 25.198,23.6785 24.37,26.0005 L10,26.0005 L10,26.0005 Z" id="Fill-75"></path>
                                    <path d="M40,40.0005 L4,40.0005 L4,22.8285 L22,4.8285 L40,22.8285 L40,40.0005 Z M43.414,20.5865 L23.414,0.5865 C22.634,-0.1955 21.368,-0.1955 20.586,0.5865 L0.586,20.5865 C0.212,20.9605 0,21.4685 0,22.0005 L0,42.0005 C0,43.1065 0.896,44.0005 2,44.0005 L42,44.0005 C43.106,44.0005 44,43.1065 44,42.0005 L44,22.0005 C44,21.4685 43.79,20.9605 43.414,20.5865 L43.414,20.5865 Z" id="Fill-76"></path>
                                </g>
                            </g>
                        </g>
                    </g>
                </g>
            </g>
        </g>
    </g>
</svg>