<?xml version="1.0" encoding="UTF-8"?>
<svg width="46px" height="37px" viewBox="0 0 46 37" version="1.1" xmlns="http://www.w3.org/2000/svg" xmlns:xlink="http://www.w3.org/1999/xlink">
    <!-- Generator: Sketch 58 (84663) - https://sketch.com -->
    <title>Path</title>
    <desc>Created with Sketch.</desc>
    <g id="Landing-Page" stroke="none" stroke-width="1" fill="none" fill-rule="evenodd">
        <g id="brick" transform="translate(-2631.000000, -4246.000000)" fill="#B0D8E7" fill-rule="nonzero">
            <g id="Footer" transform="translate(-2.000000, 3991.000000)">
                <g id="Group-18">
                    <g id="Footer-Copy" transform="translate(4.000000, 107.440000)">
                        <g id="Social" transform="translate(2396.000000, 0.560000)">
                            <g id="facebook" transform="translate(0.000000, 117.808619)">
                                <g id="Group-8" transform="translate(33.000000, 26.000000)">
                                    <path d="M245.535014,9.16414454 L243.760388,9.16414454 C243.101542,9.16414454 242.169797,10.1134782 242.169797,10.7211008 L242.169797,32.7478128 C242.169797,33.3561356 243.101542,34.1855553 243.760388,34.1855553 L245.535014,34.1855553 L245.535014,39.4139804 L229.456812,39.4139804 L229.456812,34.1855553 L232.822029,34.1855553 L232.822029,11.0313017 L232.657099,11.0313017 L224.798615,39.4139804 L218.714582,39.4139804 L210.957406,11.0313017 L210.761101,11.0313017 L210.761101,34.1855553 L214.126319,34.1855553 L214.126319,39.4139804 L200.665449,39.4139804 L200.665449,34.1855553 L202.389247,34.1855553 C203.098922,34.1855553 204.030667,33.3561356 204.030667,32.7478128 L204.030667,10.7209257 C204.030667,10.1133032 203.098922,9.16396949 202.389247,9.16396949 L200.665449,9.16396949 L200.665449,3.9357195 L217.497495,3.9357195 L223.023813,24.4756731 L223.1763,24.4756731 L228.753271,3.9357195 L245.535014,3.9357195 L245.535014,9.16414454" id="Path"></path>
                                </g>
                            </g>
                        </g>
                    </g>
                </g>
            </g>
        </g>
    </g>
</svg>