<?xml version="1.0" encoding="UTF-8"?>
<svg width="46px" height="37px" viewBox="0 0 46 37" version="1.1" xmlns="http://www.w3.org/2000/svg" xmlns:xlink="http://www.w3.org/1999/xlink">
    <!-- Generator: Sketch 59.1 (86144) - https://sketch.com -->
    <title>Path</title>
    <desc>Created with Sketch.</desc>
    <g id="Page-2" stroke="none" stroke-width="1" fill="none" fill-rule="evenodd">
        <g id="7-copy" transform="translate(-2714.000000, -70.000000)" fill="#1C2B4D" fill-rule="nonzero">
            <g id="Top" transform="translate(0.000000, -1174.000000)">
                <g id="Group-21" transform="translate(2612.000000, 1244.000000)">
                    <path d="M147.256532,6.21223677 L145.481906,6.21223677 C144.823059,6.21223677 143.891315,7.16157045 143.891315,7.76919302 L143.891315,29.7959051 C143.891315,30.4042279 144.823059,31.2336476 145.481906,31.2336476 L147.256532,31.2336476 L147.256532,36.4620726 L131.17833,36.4620726 L131.17833,31.2336476 L134.543547,31.2336476 L134.543547,8.07939388 L134.378616,8.07939388 L126.520133,36.4620726 L120.4361,36.4620726 L112.678923,8.07939388 L112.482619,8.07939388 L112.482619,31.2336476 L115.847836,31.2336476 L115.847836,36.4620726 L102.386967,36.4620726 L102.386967,31.2336476 L104.110764,31.2336476 C104.82044,31.2336476 105.752184,30.4042279 105.752184,29.7959051 L105.752184,7.76901796 C105.752184,7.16139539 104.82044,6.21206171 104.110764,6.21206171 L102.386967,6.21206171 L102.386967,0.983811732 L119.219013,0.983811732 L124.745331,21.5237654 L124.897817,21.5237654 L130.474789,0.983811732 L147.256532,0.983811732 L147.256532,6.21223677" id="Path"></path>
                </g>
            </g>
        </g>
    </g>
</svg>