<?xml version="1.0" encoding="UTF-8"?>
<svg width="46px" height="36px" viewBox="0 0 46 36" version="1.1" xmlns="http://www.w3.org/2000/svg" xmlns:xlink="http://www.w3.org/1999/xlink">
    <!-- Generator: Sketch 59.1 (86144) - https://sketch.com -->
    <title>Path Copy</title>
    <desc>Created with Sketch.</desc>
    <g id="Page-2" stroke="none" stroke-width="1" fill="none" fill-rule="evenodd">
        <path d="M45.256532,5.22842504 L43.4819057,5.22842504 C42.8230592,5.22842504 41.8913146,6.17775872 41.8913146,6.78538129 L41.8913146,28.8120933 C41.8913146,29.4204161 42.8230592,30.2498358 43.4819057,30.2498358 L45.256532,30.2498358 L45.256532,35.4782609 L29.1783296,35.4782609 L29.1783296,30.2498358 L32.543547,30.2498358 L32.543547,7.09558215 L32.3786163,7.09558215 L24.5201326,35.4782609 L18.4361,35.4782609 L10.6789233,7.09558215 L10.482619,7.09558215 L10.482619,30.2498358 L13.8478364,30.2498358 L13.8478364,35.4782609 L0.386966819,35.4782609 L0.386966819,30.2498358 L2.11076437,30.2498358 C2.82043965,30.2498358 3.75218421,29.4204161 3.75218421,28.8120933 L3.75218421,6.78520623 C3.75218421,6.17758366 2.82043965,5.22824998 2.11076437,5.22824998 L0.386966819,5.22824998 L0.386966819,0 L17.219013,0 L22.7453309,20.5399536 L22.8978174,20.5399536 L28.4747888,0 L45.256532,0 L45.256532,5.22842504" id="Path-Copy" fill="#3D517D" fill-rule="nonzero"></path>
    </g>
</svg>