<?xml version="1.0" encoding="UTF-8"?>
<svg width="38px" height="33px" viewBox="0 0 38 33" version="1.1" xmlns="http://www.w3.org/2000/svg" xmlns:xlink="http://www.w3.org/1999/xlink">
    <!-- Generator: Sketch 59.1 (86144) - https://sketch.com -->
    <title>Shape</title>
    <desc>Created with Sketch.</desc>
    <g id="Page-2" stroke="none" stroke-width="1" fill="none" fill-rule="evenodd">
        <g id="7-copy" transform="translate(-2613.000000, -72.000000)" fill="#202D3B">
            <g id="Top" transform="translate(0.000000, -1174.000000)">
                <g id="Group-21" transform="translate(2612.000000, 1244.000000)">
                    <path d="M34.2813163,7.33885447 C35.8860598,6.32616994 37.1174003,4.7204086 37.6952858,2.80756004 C36.1927836,3.74757508 34.5324742,4.42738645 32.761033,4.79542226 C31.3474363,3.2013818 29.3270598,2.20745069 27.0910876,2.20745069 C22.8013993,2.20745069 19.325196,5.87608793 19.325196,10.4003498 C19.325196,11.0426544 19.3896525,11.6685497 19.5230107,12.2663148 C13.0684746,11.924065 7.34518585,8.66565873 3.51113807,3.70537989 C2.84212452,4.91966365 2.45983106,6.32616994 2.45983106,7.82644332 C2.45983106,10.667586 3.83119771,13.1758556 5.91603065,14.6479988 C4.64246,14.6058036 3.44445898,14.2330795 2.3953746,13.6235934 L2.3953746,13.724393 C2.3953746,17.6954291 5.07142882,21.0077514 8.62986969,21.7578881 C7.97641459,21.9501106 7.29184258,22.0462219 6.58059893,22.0462219 C6.08050574,22.0462219 5.59152574,21.9969942 5.12032682,21.9008829 C6.10717738,25.1546008 8.97660096,27.5269081 12.3772346,27.5902008 C9.71673888,29.789039 6.36722584,31.0970899 2.72877006,31.0970899 C2.1019866,31.0970899 1.48187104,31.0619272 0.875091308,30.9845694 C4.31350981,33.3076489 8.39649286,34.6649275 12.7839771,34.6649275 C27.0755291,34.6649275 34.8858734,22.17984 34.8858734,11.3520857 C34.8858734,10.9957708 34.8814281,10.6418001 34.8658697,10.2925177 C36.3839303,9.13683834 37.7041764,7.69282522 38.7421476,6.04955704 C37.3485545,6.70123829 35.8504976,7.14194359 34.2813163,7.33885447 Z" id="Shape"></path>
                </g>
            </g>
        </g>
    </g>
</svg>