<?xml version="1.0" encoding="UTF-8"?>
<svg width="38px" height="34px" viewBox="0 0 38 34" version="1.1" xmlns="http://www.w3.org/2000/svg" xmlns:xlink="http://www.w3.org/1999/xlink">
    <!-- Generator: Sketch 58 (84663) - https://sketch.com -->
    <title>Shape</title>
    <desc>Created with Sketch.</desc>
    <g id="Landing-Page" stroke="none" stroke-width="1" fill="none" fill-rule="evenodd">
        <g id="brick" transform="translate(-2530.000000, -4247.000000)" fill="#B0D8E7">
            <g id="Footer" transform="translate(-2.000000, 3991.000000)">
                <g id="Group-18">
                    <g id="Footer-Copy" transform="translate(4.000000, 107.440000)">
                        <g id="Social" transform="translate(2396.000000, 0.560000)">
                            <g id="facebook" transform="translate(0.000000, 117.808619)">
                                <g id="Group-8" transform="translate(33.000000, 26.000000)">
                                    <path d="M132.559799,10.2907622 C134.164542,9.27807771 135.395883,7.67231637 135.973768,5.75946782 C134.471266,6.69948285 132.810957,7.37929422 131.039515,7.74733004 C129.625919,6.15328958 127.605542,5.15935847 125.36957,5.15935847 C121.079882,5.15935847 117.603678,8.8279957 117.603678,13.3522576 C117.603678,13.9945621 117.668135,14.6204574 117.801493,15.2182226 C111.346957,14.8759727 105.623668,11.6175665 101.78962,6.65728766 C101.120607,7.87157142 100.738313,9.27807771 100.738313,10.7783511 C100.738313,13.6194938 102.10968,16.1277633 104.194513,17.5999066 C102.920942,17.5577114 101.722941,17.1849872 100.673857,16.5755012 L100.673857,16.6763008 C100.673857,20.6473369 103.349911,23.9596592 106.908352,24.7097959 C106.254897,24.9020184 105.570325,24.9981297 104.859081,24.9981297 C104.358988,24.9981297 103.870008,24.9489019 103.398809,24.8527907 C104.38566,28.1065086 107.255083,30.4788158 110.655717,30.5421086 C107.995221,32.7409468 104.645708,34.0489976 101.007252,34.0489976 C100.380469,34.0489976 99.7603535,34.013835 99.1535737,33.9364771 C102.591992,36.2595567 106.674975,37.6168352 111.06246,37.6168352 C125.354012,37.6168352 133.164356,25.1317478 133.164356,14.3039935 C133.164356,13.9476786 133.159911,13.5937078 133.144352,13.2444254 C134.662413,12.0887461 135.982659,10.644733 137.02063,9.00146481 C135.627037,9.65314606 134.12898,10.0938514 132.559799,10.2907622 Z" id="Shape"></path>
                                </g>
                            </g>
                        </g>
                    </g>
                </g>
            </g>
        </g>
    </g>
</svg>