<?xml version="1.0" encoding="UTF-8"?>
<svg width="39px" height="33px" viewBox="0 0 39 33" version="1.1" xmlns="http://www.w3.org/2000/svg" xmlns:xlink="http://www.w3.org/1999/xlink">
    <!-- Generator: Sketch 59.1 (86144) - https://sketch.com -->
    <title>Shape Copy</title>
    <desc>Created with Sketch.</desc>
    <g id="Page-2" stroke="none" stroke-width="1" fill="none" fill-rule="evenodd">
        <path d="M34.2813163,5.35504274 C35.8860598,4.34235821 37.1174003,2.73659686 37.6952858,0.823748312 C36.1927836,1.76376335 34.5324742,2.44357472 32.761033,2.81161053 C31.3474363,1.21757007 29.3270598,0.223638962 27.0910876,0.223638962 C22.8013993,0.223638962 19.325196,3.8922762 19.325196,8.41653809 C19.325196,9.05884263 19.3896525,9.68473793 19.5230107,10.2825031 C13.0684746,9.94025324 7.34518585,6.681847 3.51113807,1.72156816 C2.84212452,2.93585192 2.45983106,4.34235821 2.45983106,5.84263158 C2.45983106,8.68377429 3.83119771,11.1920438 5.91603065,12.6641871 C4.64246,12.6219919 3.44445898,12.2492677 2.3953746,11.6397817 L2.3953746,11.7405813 C2.3953746,15.7116174 5.07142882,19.0239397 8.62986969,19.7740764 C7.97641459,19.9662989 7.29184258,20.0624102 6.58059893,20.0624102 C6.08050574,20.0624102 5.59152574,20.0131824 5.12032682,19.9170712 C6.10717738,23.1707891 8.97660096,25.5430963 12.3772346,25.6063891 C9.71673888,27.8052273 6.36722584,29.1132781 2.72877006,29.1132781 C2.1019866,29.1132781 1.48187104,29.0781155 0.875091308,29.0007576 C4.31350981,31.3238372 8.39649286,32.6811157 12.7839771,32.6811157 C27.0755291,32.6811157 34.8858734,20.1960283 34.8858734,9.36827401 C34.8858734,9.01195909 34.8814281,8.65798834 34.8658697,8.30870594 C36.3839303,7.15302661 37.7041764,5.70901349 38.7421476,4.06574531 C37.3485545,4.71742655 35.8504976,5.15813186 34.2813163,5.35504274 Z" id="Shape-Copy" fill="#3D517D"></path>
    </g>
</svg>